HIERARCHY
ROOT Hips
{
	OFFSET 0.000000 0.000000 0.000000
	CHANNELS 6 Xposition Yposition Zposition Yrotation Xrotation Zrotation
	JOINT Chest
	{
		OFFSET 0.000000 -0.009281 11.569106
		CHANNELS 3 Yrotation Xrotation Zrotation
		JOINT Chest2
		{
			OFFSET -0.000000 0.016865 9.269641
			CHANNELS 3 Yrotation Xrotation Zrotation
			JOINT Chest3
			{
				OFFSET -0.000000 0.000001 8.374491
				CHANNELS 3 Yrotation Xrotation Zrotation
				JOINT Chest4
				{
					OFFSET -0.000000 0.000001 8.374493
					CHANNELS 3 Yrotation Xrotation Zrotation
					JOINT Neck
					{
						OFFSET -0.000000 0.000002 12.152554
						CHANNELS 3 Yrotation Xrotation Zrotation
						JOINT Head
						{
							OFFSET -0.000000 0.040101 7.802319
							CHANNELS 3 Yrotation Xrotation Zrotation
							End Site
							{
								OFFSET -0.000000 0.020947 14.853096
							}
						}
					}
					JOINT RightCollar
					{
						OFFSET 2.894404 0.000001 6.791374
						CHANNELS 3 Yrotation Xrotation Zrotation
						JOINT RightShoulder
						{
							OFFSET 13.574684 0.000001 0.000000
							CHANNELS 3 Yrotation Xrotation Zrotation
							JOINT RightElbow
							{
								OFFSET 23.923903 0.000002 0.000000
								CHANNELS 3 Yrotation Xrotation Zrotation
								JOINT RightWrist
								{
									OFFSET 19.846718 0.012767 0.000000
									CHANNELS 3 Yrotation Xrotation Zrotation
									End Site
									{
										OFFSET 14.973145 0.000001 0.000000
									}
								}
							}
						}
					}
					JOINT LeftCollar
					{
						OFFSET -2.894404 0.000001 6.791374
						CHANNELS 3 Yrotation Xrotation Zrotation
						JOINT LeftShoulder
						{
							OFFSET -13.574684 -0.000001 0.000000
							CHANNELS 3 Yrotation Xrotation Zrotation
							JOINT LeftElbow
							{
								OFFSET -23.923903 -0.000002 0.000000
								CHANNELS 3 Yrotation Xrotation Zrotation
								JOINT LeftWrist
								{
									OFFSET -19.846718 0.012763 0.000000
									CHANNELS 3 Yrotation Xrotation Zrotation
									End Site
									{
										OFFSET -14.973145 -0.000001 0.000000
									}
								}
							}
						}
					}
				}
			}
		}
	}
	JOINT RightHip
	{
		OFFSET 9.469263 0.004643 0.045487
		CHANNELS 3 Yrotation Xrotation Zrotation
		JOINT RightKnee
		{
			OFFSET 0.000000 0.002661 -40.478676
			CHANNELS 3 Yrotation Xrotation Zrotation
			JOINT RightAnkle
			{
				OFFSET 0.000000 0.049106 -35.224068
				CHANNELS 3 Yrotation Xrotation Zrotation
				JOINT RightToe
				{
					OFFSET -0.000001 12.539529 -6.151390
					CHANNELS 3 Yrotation Xrotation Zrotation
					End Site
					{
						OFFSET -0.000001 5.044994 -1.291870
					}
				}
			}
		}
	}
	JOINT LeftHip
	{
		OFFSET -9.469263 0.004641 0.045487
		CHANNELS 3 Yrotation Xrotation Zrotation
		JOINT LeftKnee
		{
			OFFSET 0.000000 0.002661 -40.478676
			CHANNELS 3 Yrotation Xrotation Zrotation
			JOINT LeftAnkle
			{
				OFFSET 0.000000 0.049106 -35.224068
				CHANNELS 3 Yrotation Xrotation Zrotation
				JOINT LeftToe
				{
					OFFSET -0.000001 12.539529 -6.151390
					CHANNELS 3 Yrotation Xrotation Zrotation
					End Site
					{
						OFFSET -0.000001 5.044994 -1.291870
					}
				}
			}
		}
	}
}
MOTION
Frames: 8
Frame Time: 0.016667
20.101513 8.088134 83.126060 -5.117918 -2.913792 -113.822227 -1.069045 -4.679774 8.405859 -0.383614 -2.095861 3.725074 -0.383615 -2.095862 3.725074 -0.274912 -1.574304 2.792180 4.716822 -14.032125 -9.506172 5.153208 10.118047 -16.054484 12.750344 0.406518 -15.683381 77.767509 4.098733 11.809757 -1.600817 -17.049747 1.599042 -20.014987 12.116722 19.772365 -4.779698 -7.997944 -19.664810 -75.981606 -0.198835 -13.287465 0.687290 -4.878169 -0.848407 21.678850 -10.783257 -23.027515 0.340570 -10.061471 -4.997412 0.922852 -0.042750 -2.113549 -0.510565 3.795908 1.779929 -0.114994 -0.043366 -0.084371 0.724109 -9.357287 -0.354417 -0.431375 0.846537 -4.973398 0.138008 2.439637 3.261544 0.055301 -0.045937 0.086969 
20.071861 8.080097 83.128777 -5.144273 -2.910637 -113.790658 -1.070060 -4.672031 8.387217 -0.385713 -2.092754 3.716521 -0.385713 -2.092754 3.716522 -0.276533 -1.571982 2.785762 4.773175 -14.246929 -9.507975 5.278106 9.725891 -16.026463 12.746807 0.324885 -15.689206 77.805861 4.074735 11.849491 -1.593307 -17.090689 1.610009 -19.975640 12.101432 19.759152 -4.791128 -8.083314 -19.641078 -75.974571 -0.239910 -13.322341 0.690412 -4.862512 -0.825672 21.702930 -10.821032 -23.021286 0.332428 -10.056182 -5.036186 0.944465 -0.076246 -2.124572 -0.517830 3.808551 1.792634 -0.112232 -0.043105 -0.083395 0.730353 -9.344568 -0.376813 -0.428719 0.819502 -4.979046 0.120286 2.430314 3.273137 0.051926 -0.041329 0.085375 
20.043060 8.075287 83.130623 -5.180820 -2.908985 -113.757593 -1.068903 -4.663301 8.363036 -0.386892 -2.089334 3.705637 -0.386892 -2.089335 3.705638 -0.277475 -1.569415 2.777598 4.848455 -14.516015 -9.510986 5.442577 9.234928 -15.991828 12.742642 0.255080 -15.686180 77.833257 4.073416 11.873358 -1.563471 -17.114137 1.617609 -19.936395 12.098388 19.739486 -4.824216 -8.148715 -19.603309 -75.987077 -0.241521 -13.329268 0.722194 -4.902569 -0.793338 21.714706 -10.892595 -23.015212 0.315248 -10.052176 -5.071583 0.973783 -0.128821 -2.135582 -0.528299 3.833030 1.806004 -0.108943 -0.044744 -0.082866 0.733225 -9.336624 -0.425833 -0.425110 0.781548 -4.965712 0.106118 2.426346 3.257072 0.047003 -0.036828 0.083533 
20.014145 8.068616 83.131195 -5.224818 -2.911221 -113.722875 -1.065973 -4.653616 8.343828 -0.387779 -2.084952 3.696856 -0.387779 -2.084953 3.696856 -0.278197 -1.566128 2.771013 4.947352 -14.846963 -9.521267 5.653452 8.631282 -15.960463 12.734558 0.185941 -15.699144 77.858453 4.084491 11.896626 -1.515758 -17.118942 1.619953 -19.912191 12.084346 19.738874 -4.852762 -8.224971 -19.573244 -76.005881 -0.218381 -13.345393 0.759914 -4.946607 -0.744472 21.722308 -10.952051 -23.020268 0.303051 -10.048351 -5.066856 0.996593 -0.199304 -2.184047 -0.540848 3.869144 1.815742 -0.102908 -0.047326 -0.080544 0.730039 -9.326061 -0.478820 -0.418018 0.722094 -4.942702 0.098490 2.438010 3.293946 0.040925 -0.037334 0.081868 
19.986286 8.065378 83.130463 -5.273875 -2.916094 -113.691661 -1.063659 -4.638526 8.331172 -0.388629 -2.077873 3.690662 -0.388629 -2.077873 3.690662 -0.278898 -1.560819 2.766375 5.064269 -15.233514 -9.539245 5.899195 7.925968 -15.936336 12.725926 0.100605 -15.715386 77.889387 4.110186 11.926802 -1.476976 -17.149910 1.618514 -19.920617 12.080080 19.758936 -4.874419 -8.306982 -19.554531 -76.032833 -0.187023 -13.360388 0.795420 -4.956708 -0.680148 21.742364 -10.980412 -23.023907 0.286151 -10.032843 -5.031946 1.023364 -0.306215 -2.250561 -0.558820 3.926405 1.805905 -0.093999 -0.051948 -0.077915 0.729708 -9.316140 -0.518070 -0.411415 0.646157 -4.918575 0.091757 2.464877 3.288385 0.033375 -0.041026 0.078082 
19.960457 8.061870 83.129112 -5.335150 -2.925775 -113.664299 -1.061328 -4.628848 8.327782 -0.389715 -2.072740 3.688079 -0.389716 -2.072741 3.688081 -0.279754 -1.556975 2.764439 5.175975 -15.623595 -9.558261 6.134251 7.213500 -15.917915 12.710295 0.036158 -15.732461 77.916681 4.115335 11.938220 -1.462147 -17.197469 1.617640 -19.937073 12.091521 19.777868 -4.892355 -8.367853 -19.546482 -76.059573 -0.186091 -13.363188 0.828685 -4.915799 -0.602166 21.787463 -10.997357 -23.029822 0.262685 -10.008318 -5.000456 1.051813 -0.461452 -2.292160 -0.577905 4.009379 1.798854 -0.084563 -0.056881 -0.076047 0.729725 -9.310550 -0.542111 -0.412081 0.546856 -4.903419 0.092604 2.507583 3.249432 0.026442 -0.045853 0.075620 
19.938133 8.060485 83.127777 -5.415320 -2.944205 -113.638659 -1.059621 -4.623752 8.326965 -0.390547 -2.069753 3.686332 -0.390546 -2.069753 3.686330 -0.280401 -1.554737 2.763124 5.257903 -15.975843 -9.575247 6.310701 6.568433 -15.909508 12.689334 -0.006324 -15.759883 77.936953 4.062275 11.937316 -1.473657 -17.226965 1.605109 -19.931687 12.086926 19.782743 -4.915846 -8.415265 -19.532854 -76.082959 -0.232213 -13.363080 0.880224 -4.826209 -0.505094 21.843736 -11.041581 -23.050430 0.238088 -9.984002 -4.984608 1.080420 -0.664870 -2.296837 -0.603422 4.116145 1.752098 -0.072838 -0.058919 -0.076657 0.728760 -9.312615 -0.560754 -0.416271 0.414449 -4.884794 0.098284 2.570875 3.221487 0.021597 -0.050611 0.074801 
19.916893 8.060958 83.125969 -5.520503 -2.970900 -113.611222 -1.048918 -4.623821 8.322605 -0.387819 -2.069383 3.682557 -0.387819 -2.069384 3.682557 -0.278370 -1.554442 2.760304 5.309015 -16.285396 -9.593074 6.425650 5.999654 -15.916142 12.668324 -0.071862 -15.800106 77.938811 3.983089 11.966338 -1.494307 -17.254590 1.585355 -19.912272 12.062206 19.777764 -4.958623 -8.481099 -19.490541 -76.100581 -0.284240 -13.377197 0.948327 -4.756907 -0.413596 21.894236 -11.106472 -23.071004 0.200961 -9.957795 -4.974950 1.114227 -0.927021 -2.262708 -0.635928 4.251374 1.700650 -0.057105 -0.060463 -0.077275 0.720050 -9.319879 -0.579248 -0.417996 0.237565 -4.868438 0.111581 2.659155 3.224073 0.015418 -0.055873 0.073975 
